PathFileType	4	(X/Y/Z)	pose_F01_0-90.trc
DataRate	CameraRate	NumFrames	NumMarkers	Units	OrigDataRate	OrigDataStartFrame	OrigNumFrames
30	30	10	21	m	30	0	90
Frame#	Time	CHip			RHip			RKnee			RAnkle			RBigToe			RSmallToe			RHeel			LHip			LKnee			LAnkle			LBigToe			LSmallToe			LHeel			Neck			Nose			RShoulder			RElbow			RWrist			LShoulder			LElbow			LWrist			
		X1	Y1	Z1	X2	Y2	Z2	X3	Y3	Z3	X4	Y4	Z4	X5	Y5	Z5	X6	Y6	Z6	X7	Y7	Z7	X8	Y8	Z8	X9	Y9	Z9	X10	Y10	Z10	X11	Y11	Z11	X12	Y12	Z12	X13	Y13	Z13	X14	Y14	Z14	X15	Y15	Z15	X16	Y16	Z16	X17	Y17	Z17	X18	Y18	Z18	X19	Y19	Z19	X20	Y20	Z20	X21	Y21	Z21	
0	0.0	-0.2500930618134864	1.8210595545158432	-0.5248217068981199	-0.26415254741546246	1.8182575384978839	-0.4647690596357162	-0.2611032113821563	1.6913870676471106	-0.4923579292428318										-0.2037565728562685	1.590537996091005	-0.5115109213441936	-0.2417365772130422	1.8211200697126835	-0.6064285978119629	-0.2231939219511614	1.6904041029800128	-0.5363795885972068	-0.2250461311132881	1.562683671927081	-0.5613138645300111	-0.23875752789258467	1.5293710008049834	-0.6275696509226676	-0.22461077509107133	1.5421770392583178	-0.638545823200613	-0.21946926601692512	1.5731586410255531	-0.5388936102432449	-0.23701285720780288	1.9834822613962597	-0.5520108943244291	-0.2523425202179345	2.0540123799513355	-0.5824240496910352	-0.26022506054347944	1.9796495715736013	-0.45329635478322267	-0.2692694752941187	1.898794091506121	-0.4062724535112823	-0.27799635820588403	1.8259785351381455	-0.39180985860264456	-0.21197313880012958	1.984200543571269	-0.6452087212426063	-0.21464070311408295	1.8948589249529737	-0.6665066148052251	-0.22030009186243305	1.8075527063235914	-0.6605345136904719
1	0.03333333333333333	-0.2478023751944518	1.824251488704015	-0.5273920893247653	-0.26389057844816993	1.822087875160305	-0.4652424058030515	-0.25921137984588594	1.69236470326255	-0.4924817532257988										-0.2037565728562685	1.590537996091005	-0.5115109213441936	-0.23642420319262697	1.826105116137949	-0.5997760162845808	-0.2277383261261984	1.6913498149252835	-0.5532769405245717	-0.22255484776751078	1.56402193955207	-0.5640289546562566	-0.2386156548239828	1.5283247290871076	-0.6274607464437442	-0.2245391443949983	1.5418291700003188	-0.6381795024131715	-0.21613792229077516	1.570447745436859	-0.5460566431807775	-0.23906863925069913	1.9847049292969487	-0.5502428407345942	-0.25420710966727605	2.0577587576679486	-0.580553086649061	-0.2621995179529169	1.9834238038510075	-0.4520832056620122	-0.2710840069684579	1.8970650565162284	-0.4037331303603786	-0.27979032970353895	1.8248747275712878	-0.3894807091087787	-0.2139662383994513	1.9865866049458525	-0.6433326825628495	-0.2093530181527274	1.9008657367200719	-0.6685192327730943	-0.21418552217259468	1.8183899338250673	-0.6685504234831557
2	0.06666666666666667	-0.24551168857541722	1.827443422892187	-0.5299624717514108	-0.2636286094808774	1.825918211822726	-0.4657157519703868	-0.2573195483096155	1.6933423388779891	-0.49260557720876585										-0.2037565728562685	1.590537996091005	-0.5115109213441936	-0.23111182917221174	1.8310901625632143	-0.5931234347571986	-0.23228273030123542	1.6922955268705542	-0.5701742924519365	-0.22006356442173344	1.5653602071770591	-0.5667440447825021	-0.23847378175538095	1.5272784573692317	-0.6273518419648207	-0.2244675136989253	1.5414813007423198	-0.6378131816257299	-0.2128065785646252	1.567736849848165	-0.5532196761183101	-0.24112442129359538	1.9859275971976378	-0.5484747871447593	-0.2560716991166176	2.0615051353845617	-0.5786821236070868	-0.2641739753623544	1.9871980361284136	-0.45087005654080176	-0.2728985386427971	1.8953360215263357	-0.4011938072094749	-0.2815843012011939	1.82377092000443	-0.3871515596149128	-0.21595933799877304	1.988972666320436	-0.6414566438830926	-0.20406533319137182	1.90687254848717	-0.6705318507409636	-0.2080709524827563	1.8292271613265432	-0.6765663332758396
3	0.1	-0.24429770730511935	1.8251566071951009	-0.5265641849540939	-0.25947854616799493	1.824683109329929	-0.4608465861891605	-0.25542771677334514	1.6943199744934285	-0.49272940119173286										-0.2037565728562685	1.590537996091005	-0.5115109213441936	-0.23011360060102504	1.8312195673136997	-0.5898073228447168	-0.23682713447627243	1.693241238815825	-0.5870716443793014	-0.2175722810759561	1.5666984748020485	-0.5694591349087476	-0.2339236063449463	1.53268596716263	-0.6232646163265269	-0.21818370618745117	1.5406689260439486	-0.6395688450610436	-0.20947523483847524	1.5650259542594709	-0.5603827090558428	-0.24107072934358384	1.9848553980831751	-0.5481355479594606	-0.2581018841356017	2.061896477300508	-0.5766190802737889	-0.26514516623573053	1.9860210705402463	-0.453471645216362	-0.2735349540865002	1.8989028291446133	-0.3960582538358989	-0.27894798903661133	1.8244744949096148	-0.38243451304308873	-0.21602984524244803	1.9884282169073395	-0.6414346848345966	-0.19679458917417075	1.9078579720979154	-0.6862126382165258	-0.20013660728354687	1.8360178506731795	-0.7136069122431096
4	0.13333333333333333	-0.24448096645847534	1.8190957224186386	-0.5257334984819823	-0.2575677551808663	1.8176445104958456	-0.4534630471211157	-0.2535358852370747	1.6952976101088677	-0.4928532251746999										-0.2037565728562685	1.590537996091005	-0.5115109213441936	-0.22746007187532552	1.824723566543872	-0.5880542543736481	-0.22891091796724689	1.6907767168811343	-0.5995631325863588	-0.20499738259816036	1.5714096131457114	-0.583187756168201	-0.21902254658464163	1.5388607769888858	-0.6382824911768886	-0.2056010716598613	1.5476340002330793	-0.6530014079543158	-0.20614389111232528	1.5623150586707768	-0.5675457419933754	-0.23721680828359495	1.9810772480983905	-0.5521826618461146	-0.25806714007560194	2.061145022954518	-0.5849788461228066	-1.7764149225854904	1.8889267190432055	1.218992727756436	-0.27258610476181233	1.8953716869740727	-0.39225352657456986	-0.27631167687202884	1.8251780698147997	-0.3777174664712646	-0.21396261434913202	1.9852638503142896	-0.6434516295341528	-0.18855937284605842	1.915314796102987	-0.699583637032307	-0.18987147916667776	1.8573630945550827	-0.7541433568100704
5	0.16666666666666666	-0.2408930514382204	1.821552503857406	-0.5303086819631768	-0.2590758206152812	1.8193030424248489	-0.4657123598111742	-0.25164405370080434	1.6962752457243069	-0.49297704915766694										-0.2037565728562685	1.590537996091005	-0.5115109213441936	-0.22214699681941005	1.8235791177674918	-0.5977867211945825	-0.22561919431072222	1.6936587950975799	-0.5947534021074354	-0.20380477260734425	1.5710863282751903	-0.5841808879296373	-0.21937437429165219	1.5378961973255598	-0.6379051615573085	-0.20465395521281154	1.5464955780407181	-0.6578821344089311	-0.20281254738617532	1.5596041630820827	-0.574708774930908	-0.23502622940492288	1.9809002346698426	-0.5547188260622112	-0.25359759127059056	2.058652655258948	-0.6050347530542599	-1.7745296936163897	1.8888718462189469	1.2164741872681386	-0.2688609680737051	1.8951678533442649	-0.396877082599062	-0.27367536470744636	1.8258816447199844	-0.3730004198994405	-0.20755211851282757	1.985368535242542	-0.650259254422995	-0.17938856872155534	1.9209002548631087	-0.7070498263349921	-0.18893980572495334	1.9029274766581128	-0.7347033956318052
6	0.2	-0.23565945030600485	1.8274609384082678	-0.5411511721665323	-0.25114450783294934	1.824341138168881	-0.4841506361544425	-0.2497522221645339	1.6972528813397463	-0.493100873140634										-0.2037565728562685	1.590537996091005	-0.5115109213441936	-0.2177497132038821	1.832225920755026	-0.6120159444557042	-0.2206604226777487	1.6991036296439441	-0.5960405187889113	-0.2033122134159761	1.5737742161343988	-0.5851309311529526	-0.221555249935707	1.5377599396115256	-0.6356680528401232	-0.20623063115415693	1.547931823514391	-0.6521870941540241	-0.2043468019549211	1.5641242631169128	-0.5695118239651502	-0.2295844164208795	1.9835069397077993	-0.5644742094667119	-0.2503147452502495	2.060248893429327	-0.6128706111298533	-0.2524136413409578	1.9825180121554524	-0.47147511597760194	-0.2637648625180398	1.9033221761224262	-0.40744511593650773	-0.2710390525428638	1.826585219625169	-0.3682833733276164	-0.20167018304347686	1.9880472355408851	-0.6600834541152532	-1.3281619593665501	1.8465237794309468	0.4764499415368758	-0.1978925237419641	1.9395198775298268	-0.7294058008065489
7	0.23333333333333334	-0.228502641506731	1.831118738909043	-0.548514838126361	-0.24615434325527286	1.82932604048707	-0.4890780772831175	-0.24786039062826354	1.6982305169551855	-0.493224697123601										-0.2037565728562685	1.590537996091005	-0.5115109213441936	-0.21624009386309936	1.83404790592845	-0.6213223951050375	-0.21333302626556888	1.6998501040379312	-0.5954246992487257	-0.20113619474643554	1.5736629765571122	-0.5874923067995168	-0.21916108747604124	1.5396024659746232	-0.6385652061364978	-0.20432878605363639	1.5478646627411519	-0.6585901956567032	-0.202920429756037	1.5629990540421983	-0.5754015255435915	-0.22426653703313265	1.9862907107062788	-0.5745823582630942	-0.24608757764902514	2.0588499359782633	-0.6169663833399519	-0.2474156330963214	1.982864440106599	-0.4812379450875839	-0.257740641790432	1.9029654886188965	-0.41389371767959393	-0.26840274037828127	1.827288794530354	-0.36356632675579226	-0.1974680591338975	1.9916976459986573	-0.665325545938136	-1.255673898452417	1.8350351867599621	0.3554862985562136	-0.2068452417589748	1.976112278401541	-0.7241082059812928
8	0.26666666666666666	-0.22676140065825637	1.8291273288261112	-0.5590031292330472	-0.24259342342994222	1.8245824667922856	-0.49341081732830355	-0.24596855909199314	1.6992081525706246	-0.49334852110656807										-0.2037565728562685	1.590537996091005	-0.5115109213441936	-0.20914736268329587	1.829914821176725	-0.6330841092713926	-0.21233013601189993	1.6980596373892805	-0.608978690712781	-0.20420162483705193	1.5712416373933504	-0.588258627038558	-0.21940888506526884	1.5381071715177617	-0.6379257617785328	-0.20453668015454068	1.5460614458454214	-0.6579522162954659	-0.20330848282244396	1.5616244317252086	-0.5747904872031772	-0.22099173873009667	1.9876373132595377	-0.5822741828925474	-0.23976502528350394	2.061171237378286	-0.6238503901902825	-0.24233922591551793	1.9834318011380583	-0.49099828242653903	-0.25227808143957353	1.9025556761444113	-0.42086285689508834	-0.2657664282136988	1.8279923694355387	-0.35884928018396817	-0.19479892055956455	1.9969882756132038	-0.6767500355582607	-1.2422376640306259	1.8349775758368192	0.3253904054266255	-0.2021170378422185	1.9800963997102108	-0.7181209906622653
9	0.3	-0.22257867787492286	1.8314563551787404	-0.563919160515574	-0.23651646915841298	1.8270527373876702	-0.5004628698942833	-0.24407672755572274	1.700185788186064	-0.4934723450895351										-0.2037565728562685	1.590537996091005	-0.5115109213441936	-0.20478750477289526	1.8324883215427652	-0.6380624483722971	-0.20754667554901327	1.70077625254933	-0.6099154198333143	-0.20446834337371173	1.5727207852773386	-0.5879485019981749	-0.21902050337184067	1.5389455417248568	-0.6385279466825746	-0.2046211811659999	1.5462577599905465	-0.6579211229320078	-0.20369313257065602	1.5637905825682936	-0.5744832463643981	-0.21687211975401505	1.9874323770339155	-0.5868288530572273	-0.23674204010408978	2.06024683293564	-0.6233138685438274	-1.7342692875902628	1.8898885822161224	1.1518159169055064	-0.2475504398064414	1.902639324869327	-0.43053196406519495	-0.2624587066494313	1.8272196954605764	-0.37209133648259657	-0.1913178360880069	1.9947635005207336	-0.684155831759873	-1.236480112970843	1.831437119514587	0.3201666396100782	-0.19904464696736696	1.982338929407548	-0.7176597294052327
